<?xml version="1.0" encoding="UTF-8" standalone="no"?>
<svg
   viewBox="0 0 32 32"
   version="1.1"
   id="svg1012"
   sodipodi:docname="configure.svg"
   width="32"
   height="32"
   inkscape:version="1.1 (c4e8f9ed74, 2021-05-24)"
   xmlns:inkscape="http://www.inkscape.org/namespaces/inkscape"
   xmlns:sodipodi="http://sodipodi.sourceforge.net/DTD/sodipodi-0.dtd"
   xmlns="http://www.w3.org/2000/svg"
   xmlns:svg="http://www.w3.org/2000/svg">
  <sodipodi:namedview
     id="namedview1014"
     pagecolor="#ffffff"
     bordercolor="#666666"
     borderopacity="1.0"
     inkscape:pageshadow="2"
     inkscape:pageopacity="0.0"
     inkscape:pagecheckerboard="0"
     showgrid="false"
     inkscape:zoom="59.9375"
     inkscape:cx="7.991658"
     inkscape:cy="8"
     inkscape:current-layer="svg1012" />
  <defs
     id="defs3051">
    <style
       type="text/css"
       id="current-color-scheme">
      .ColorScheme-Text {
        color:#232629;
      }
      </style>
  </defs>
  <path
     style="fill:currentColor;fill-opacity:1;stroke:none;stroke-width:2"
     d="M 20,5 C 18.136039,5 16.568925,6.2746014 16.125,8 H 4 v 2 h 12.125 c 0.443925,1.725399 2.011039,3 3.875,3 1.863962,0 3.431074,-1.274601 3.875,-3 H 28 V 8 H 23.875 C 23.431074,6.2746014 21.863962,5 20,5 Z M 10,19 C 8.1360382,19 6.5689252,20.274602 6.125,22 H 4 v 2 h 2.125 c 0.4439252,1.725398 2.0110382,3 3.875,3 1.863962,0 3.431075,-1.274602 3.875,-3 H 14 18 28 V 22 H 18 14 13.875 C 13.431075,20.274602 11.863962,19 10,19 Z m 0,2 c 1.10456,0 2,0.89544 2,2 0,1.10456 -0.89544,2 -2,2 -1.10456,0 -2,-0.89544 -2,-2 0,-1.10456 0.89544,-2 2,-2 z"
     class="ColorScheme-Text"
     id="path1010" />
</svg>
