<?xml version="1.0" encoding="UTF-8" standalone="no"?>
<svg
   viewBox="0 0 32 32"
   version="1.1"
   id="svg1412"
   sodipodi:docname="function-dark.svg"
   width="32"
   height="32"
   inkscape:version="1.1 (c4e8f9ed74, 2021-05-24)"
   xmlns:inkscape="http://www.inkscape.org/namespaces/inkscape"
   xmlns:sodipodi="http://sodipodi.sourceforge.net/DTD/sodipodi-0.dtd"
   xmlns="http://www.w3.org/2000/svg"
   xmlns:svg="http://www.w3.org/2000/svg">
  <sodipodi:namedview
     id="namedview1414"
     pagecolor="#ffffff"
     bordercolor="#666666"
     borderopacity="1.0"
     inkscape:pageshadow="2"
     inkscape:pageopacity="0.0"
     inkscape:pagecheckerboard="0"
     showgrid="false"
     inkscape:zoom="93.4375"
     inkscape:cx="7.9946488"
     inkscape:cy="8"
     inkscape:current-layer="svg1412" />
  <defs
     id="defs3051">
    <style
       type="text/css"
       id="current-color-scheme">
      .ColorScheme-Text {
        color:#eff0f1;
      }
      </style>
  </defs>
  <path
     style="fill:currentColor;fill-opacity:1;stroke:none;stroke-width:2"
     d="m 14,4 c -2.20914,0 -4,1.79086 -4,4 v 2 2 2 H 6 v 2 h 4 v 2 4 6 h 2 V 18 16 h 4 V 14 H 12 V 10 8 c 0,-1.10456 0.89544,-2 2,-2 h 2 2 V 4 h -2 z m 4.929688,15.515625 -1.414063,1.414063 2.828125,2.828124 -2.828125,2.828126 L 18.929688,28 21.757812,25.171876 24.585938,28 26,26.585938 23.171876,23.757812 26,20.929688 24.585938,19.515625 21.757812,22.34375 Z"
     class="ColorScheme-Text"
     id="path1410" />
</svg>
