<?xml version="1.0" encoding="UTF-8" standalone="no"?>
<!-- Created with Inkscape (http://www.inkscape.org/) -->

<svg
   width="32"
   height="32"
   viewBox="0 0 8.4666665 8.4666669"
   version="1.1"
   id="svg5"
   sodipodi:docname="number-bases-dark.svg"
   inkscape:version="1.1 (c4e8f9ed74, 2021-05-24)"
   xmlns:inkscape="http://www.inkscape.org/namespaces/inkscape"
   xmlns:sodipodi="http://sodipodi.sourceforge.net/DTD/sodipodi-0.dtd"
   xmlns="http://www.w3.org/2000/svg"
   xmlns:svg="http://www.w3.org/2000/svg">
  <sodipodi:namedview
     id="namedview7"
     pagecolor="#ffffff"
     bordercolor="#666666"
     borderopacity="1.0"
     inkscape:pageshadow="2"
     inkscape:pageopacity="0.0"
     inkscape:pagecheckerboard="0"
     inkscape:document-units="mm"
     showgrid="false"
     units="px"
     width="32px"
     inkscape:zoom="23.171875"
     inkscape:cx="28.051247"
     inkscape:cy="18.837492"
     inkscape:current-layer="layer1" />
  <defs
     id="defs2" />
  <g
     inkscape:label="Lager 1"
     inkscape:groupmode="layer"
     id="layer1">
    <g
       aria-label="01
10"
       transform="matrix(1.1014029,0,0,0.9260799,-0.04209663,-0.04209684)"
       id="text1926"
       style="font-size:4.99412px;line-height:4.54011px;font-family:Sans;letter-spacing:0px;word-spacing:0px;fill:#eff0f1;stroke-width:0.181604px">
      <path
         d="m 2.0529024,2.2957433 q 0,-0.1341194 0.092664,-0.2316608 0.095103,-0.097541 0.2267838,-0.097541 0.136558,0 0.2340994,0.097541 0.097541,0.097541 0.097541,0.2316608 0,0.136558 -0.097541,0.2316609 -0.095103,0.095103 -0.2340994,0.095103 -0.136558,0 -0.2292223,-0.092664 -0.090226,-0.092664 -0.090226,-0.2340999 z M 2.3772276,0.80823686 q -0.3438335,0 -0.514531,0.37065734 -0.1682589,0.3706574 -0.1682589,1.1290418 0,0.7559459 0.1682589,1.1266033 0.1706975,0.3706573 0.514531,0.3706573 0.346272,0 0.5145309,-0.3706573 Q 3.062456,3.0638819 3.062456,2.307936 3.062456,1.5495516 2.8917585,1.1788942 2.7234996,0.80823686 2.3772276,0.80823686 Z m 0,-0.39016563 q 0.5828099,0 0.8803112,0.4779529 0.2999398,0.47795287 0.2999398,1.41191187 0,0.9315205 -0.2999398,1.4094734 -0.2975013,0.4779529 -0.8803112,0.4779529 -0.5828099,0 -0.8803112,-0.4779529 Q 1.1994151,3.2394565 1.1994151,2.307936 q 0,-0.933959 0.2975013,-1.41191187 0.2975013,-0.4779529 0.8803112,-0.4779529 z"
         style="font-family:'DejaVu Sans Mono';-inkscape-font-specification:'DejaVu Sans Mono, Normal'"
         id="path8959" />
      <path
         d="m 4.5402083,3.7100938 h 0.7657 V 0.92772509 L 4.4816834,1.1130538 V 0.66436329 L 5.3010312,0.48391168 H 5.7936154 V 3.7100938 h 0.7559459 v 0.414551 h -2.009353 z"
         style="font-family:'DejaVu Sans Mono';-inkscape-font-specification:'DejaVu Sans Mono, Normal'"
         id="path8961" />
      <path
         d="m 1.5334944,8.330054 h 0.7657 V 5.5476853 L 1.4749695,5.733014 V 5.2843235 L 2.2943174,5.1038719 H 2.7869015 V 8.330054 h 0.7559459 v 0.414551 h -2.009353 z"
         style="font-family:'DejaVu Sans Mono';-inkscape-font-specification:'DejaVu Sans Mono, Normal'"
         id="path8963" />
      <path
         d="m 5.0596163,6.9157035 q 0,-0.1341194 0.092664,-0.2316608 0.095103,-0.097541 0.2267838,-0.097541 0.1365579,0 0.2340994,0.097541 0.097541,0.097541 0.097541,0.2316608 0,0.136558 -0.097541,0.2316609 -0.095103,0.095103 -0.2340994,0.095103 -0.136558,0 -0.2292223,-0.092664 -0.090226,-0.092664 -0.090225,-0.2340999 z M 5.3839414,5.4281971 q -0.3438334,0 -0.5145309,0.3706573 -0.1682589,0.3706574 -0.1682589,1.1290418 0,0.7559459 0.1682589,1.1266033 0.1706975,0.3706573 0.5145309,0.3706573 0.346272,0 0.514531,-0.3706573 0.1706974,-0.3706574 0.1706974,-1.1266033 0,-0.7583844 -0.1706974,-1.1290418 -0.168259,-0.3706573 -0.514531,-0.3706573 z m 0,-0.3901657 q 0.58281,0 0.8803113,0.4779529 0.2999398,0.4779529 0.2999398,1.4119119 0,0.9315205 -0.2999398,1.4094734 -0.2975013,0.4779529 -0.8803113,0.4779529 -0.5828099,0 -0.8803112,-0.4779529 -0.2975013,-0.4779529 -0.2975013,-1.4094734 0,-0.933959 0.2975013,-1.4119119 0.2975013,-0.4779529 0.8803112,-0.4779529 z"
         style="font-family:'DejaVu Sans Mono';-inkscape-font-specification:'DejaVu Sans Mono, Normal'"
         id="path8965" />
    </g>
  </g>
</svg>
